<svg xmlns="http://www.w3.org/2000/svg" xmlns:xlink="http://www.w3.org/1999/xlink" width="1067" height="1269" version="1.1" viewBox="0 0 1067 1269"><desc>Created with Sketch.</desc><g id="Icon-Design" fill="none" fill-rule="evenodd" stroke="none" stroke-width="1"><g id="Icon-Copy" fill-rule="nonzero"><path id="Background" fill="#98EE99" d="M166,0 L932,0 C1006.55844,-1.36961635e-14 1067,60.4415588 1067,135 L1067,1134 C1067,1208.55844 1006.55844,1269 932,1269 L166,1269 L166,0 Z"/><path id="Bottom-Border" fill="#66BB6A" d="M0,1019 L1067,1019 L1067,1134 C1067,1208.55844 1006.55844,1269 932,1269 L135,1269 C60.4415588,1269 -4.77126432e-14,1208.55844 -5.68434189e-14,1134 L0,1019 Z"/><path id="Top-Border" fill="#66BB6A" d="M135,0 L932,0 C1006.55844,-1.36961635e-14 1067,60.4415588 1067,135 L1067,250 L0,250 L0,135 C-9.13077564e-15,60.4415588 60.4415588,1.36961635e-14 135,0 Z"/><path id="Side-Border" fill="#338A3E" d="M155.263834,-3.72240588e-15 L166,0 L166,1269 L155.263834,1269 C116.444419,1269 91.062915,1262.73427 69.062915,1250.96854 C47.062915,1239.20281 29.7971863,1221.93708 18.0314575,1199.93708 C6.26572875,1177.93708 2.27240323e-15,1152.55558 -2.48160392e-15,1113.73617 L2.48160392e-15,155.263834 C-2.27240323e-15,116.444419 6.26572875,91.062915 18.0314575,69.062915 C29.7971863,47.062915 47.062915,29.7971863 69.062915,18.0314575 C91.062915,6.26572875 116.444419,3.40860484e-15 155.263834,-3.72240588e-15 Z"/><path id="Git-Logo" fill="#6D4C41" d="M643.699927,928.476677 C628.349148,943.841108 603.431781,943.841108 588.05957,928.476677 L532.665225,873.076805 L602.934365,802.803887 C619.269951,808.319346 637.994165,804.621402 651.009277,791.603391 C664.092099,778.504278 667.763875,759.620195 662.109738,743.229364 L729.836057,675.50469 C746.221239,681.150895 765.125817,677.503359 778.209284,664.396036 C796.501096,646.109286 796.501096,616.477903 778.209284,598.185138 C759.914799,579.887672 730.283877,579.887672 711.981324,598.185138 C698.227428,611.949941 694.825852,632.15877 701.791944,649.105333 L638.630369,712.269919 L638.624999,546.056172 C643.084511,543.848518 647.293251,540.902075 651.009277,537.202083 C669.295743,518.917359 669.295743,489.291332 651.009277,470.977779 C632.717464,452.693721 603.073129,452.693721 584.799408,470.977779 C566.510293,489.291332 566.510293,518.917359 584.799408,537.202083 C589.319256,541.713932 594.549035,545.128993 600.129398,547.417761 L600.129398,715.174123 C594.549035,717.455623 589.327276,720.846439 584.799408,725.390464 C570.94632,739.233075 567.609758,759.565228 574.714638,776.576854 L505.44639,845.859554 L322.527041,662.947944 C307.157653,647.570792 307.157653,622.653037 322.527041,607.285934 L589.301141,340.523303 C604.659963,325.158899 629.569311,325.158899 644.949565,340.523303 L910.476821,606.049714 C925.84106,621.422163 925.84106,646.347293 910.476821,661.714397 L643.699927,928.476677 Z" transform="translate(616.500000, 634.500000) scale(-1, 1) rotate(-180.000000) translate(-616.500000, -634.500000)"/></g></g></svg>